<svg width="24" height="24" viewBox="0 0 24 24" fill="currentColor" xmlns="http://www.w3.org/2000/svg">
<path fill-rule="evenodd" clip-rule="evenodd" d="M11.0999 8.39999C11.0999 7.90319 11.5031 7.49999 11.9999 7.49999C12.4967 7.49999 12.8999 7.90319 12.8999 8.39999C12.8999 8.89679 12.4967 9.29999 11.9999 9.29999C11.5031 9.29999 11.0999 8.89679 11.0999 8.39999ZM11.0999 11.1C11.0999 10.6032 11.5031 10.2 11.9999 10.2C12.4967 10.2 12.8999 10.6032 12.8999 11.1V15.6C12.8999 16.0968 12.4967 16.5 11.9999 16.5C11.5031 16.5 11.0999 16.0968 11.0999 15.6V11.1ZM12 19.2C8.03007 19.2 4.79996 15.9699 4.79996 12C4.79996 8.0301 8.03007 4.79999 12 4.79999C15.9699 4.79999 19.2 8.0301 19.2 12C19.2 15.9699 15.9699 19.2 12 19.2ZM12 3C7.0293 3 3 7.0293 3 12C3 16.9707 7.0293 21 12 21C16.9698 21 21 16.9707 21 12C21 7.0293 16.9698 3 12 3Z"/>
</svg>
